HIERARCHY
ROOT Hip
{
  OFFSET 0.000000 0.000000 0.000000
  CHANNELS 6 Xposition Yposition Zposition Zrotation Xrotation Yrotation
  JOINT RHip
  {
    OFFSET 0.000000 0.000000 0.000000
    CHANNELS 3 Xposition Yposition Zposition
    End Site
    {
      OFFSET 0.000000 0.100000 0.000000
    }
  }
  JOINT RKnee
  {
    OFFSET 0.000000 0.000000 0.000000
    CHANNELS 3 Xposition Yposition Zposition
    End Site
    {
      OFFSET 0.000000 0.100000 0.000000
    }
  }
  JOINT RFoot
  {
    OFFSET 0.000000 0.000000 0.000000
    CHANNELS 3 Xposition Yposition Zposition
    End Site
    {
      OFFSET 0.000000 0.100000 0.000000
    }
  }
  JOINT LHip
  {
    OFFSET 0.000000 0.000000 0.000000
    CHANNELS 3 Xposition Yposition Zposition
    End Site
    {
      OFFSET 0.000000 0.100000 0.000000
    }
  }
  JOINT LKnee
  {
    OFFSET 0.000000 0.000000 0.000000
    CHANNELS 3 Xposition Yposition Zposition
    End Site
    {
      OFFSET 0.000000 0.100000 0.000000
    }
  }
  JOINT LFoot
  {
    OFFSET 0.000000 0.000000 0.000000
    CHANNELS 3 Xposition Yposition Zposition
    End Site
    {
      OFFSET 0.000000 0.100000 0.000000
    }
  }
  JOINT Spine
  {
    OFFSET 0.000000 0.000000 0.000000
    CHANNELS 3 Xposition Yposition Zposition
    End Site
    {
      OFFSET 0.000000 0.100000 0.000000
    }
  }
  JOINT Thorax
  {
    OFFSET 0.000000 0.000000 0.000000
    CHANNELS 3 Xposition Yposition Zposition
    End Site
    {
      OFFSET 0.000000 0.100000 0.000000
    }
  }
  JOINT Nose
  {
    OFFSET 0.000000 0.000000 0.000000
    CHANNELS 3 Xposition Yposition Zposition
    End Site
    {
      OFFSET 0.000000 0.100000 0.000000
    }
  }
  JOINT Head
  {
    OFFSET 0.000000 0.000000 0.000000
    CHANNELS 3 Xposition Yposition Zposition
    End Site
    {
      OFFSET 0.000000 0.100000 0.000000
    }
  }
  JOINT LShoulder
  {
    OFFSET 0.000000 0.000000 0.000000
    CHANNELS 3 Xposition Yposition Zposition
    End Site
    {
      OFFSET 0.000000 0.100000 0.000000
    }
  }
  JOINT LElbow
  {
    OFFSET 0.000000 0.000000 0.000000
    CHANNELS 3 Xposition Yposition Zposition
    End Site
    {
      OFFSET 0.000000 0.100000 0.000000
    }
  }
  JOINT LWrist
  {
    OFFSET 0.000000 0.000000 0.000000
    CHANNELS 3 Xposition Yposition Zposition
    End Site
    {
      OFFSET 0.000000 0.100000 0.000000
    }
  }
  JOINT RShoulder
  {
    OFFSET 0.000000 0.000000 0.000000
    CHANNELS 3 Xposition Yposition Zposition
    End Site
    {
      OFFSET 0.000000 0.100000 0.000000
    }
  }
  JOINT RElbow
  {
    OFFSET 0.000000 0.000000 0.000000
    CHANNELS 3 Xposition Yposition Zposition
    End Site
    {
      OFFSET 0.000000 0.100000 0.000000
    }
  }
  JOINT RWrist
  {
    OFFSET 0.000000 0.000000 0.000000
    CHANNELS 3 Xposition Yposition Zposition
    End Site
    {
      OFFSET 0.000000 0.100000 0.000000
    }
  }
}
MOTION
Frames: 24
Frame Time: 0.033333
-0.054955 1.074564 0.000033 0.000000 0.000000 0.000000 0.065563 0.008630 0.055583 0.198321 -0.412777 -0.145644 0.177725 -0.882555 -0.283922 -0.065567 -0.008597 -0.055638 0.082390 -0.400233 -0.155854 0.092089 -0.888745 -0.279286 0.033172 0.249992 0.154292 0.081396 0.557519 0.267099 0.153380 0.633121 0.248165 0.100060 0.745251 0.302814 0.029898 0.512644 0.184766 0.200656 0.360783 0.173187 0.232674 0.356336 0.375873 0.144109 0.534750 0.308780 0.290602 0.312696 0.303886 0.350602 0.330229 0.149566
-0.056284 1.073637 0.000034 0.000000 0.000000 0.000000 0.063144 0.009457 0.055713 0.198559 -0.426801 -0.138297 0.184033 -0.902990 -0.282472 -0.063148 -0.009424 -0.055768 0.085425 -0.415390 -0.156326 0.103096 -0.917547 -0.278924 0.036341 0.255449 0.151312 0.088578 0.568114 0.261300 0.164259 0.647727 0.243057 0.114112 0.762518 0.295821 0.039328 0.521233 0.179054 0.217886 0.371421 0.173997 0.246758 0.365039 0.383007 0.147497 0.543048 0.306658 0.298534 0.318611 0.305045 0.356806 0.342359 0.146422
-0.057970 1.071772 0.000033 0.000000 0.000000 0.000000 0.063083 0.009740 0.054975 0.199581 -0.431817 -0.147882 0.188201 -0.906780 -0.299200 -0.063088 -0.009708 -0.055028 0.085054 -0.420841 -0.163591 0.109213 -0.926569 -0.291615 0.039349 0.256488 0.154143 0.094925 0.569410 0.267721 0.173683 0.650592 0.250329 0.126951 0.766241 0.305164 0.046091 0.524126 0.183627 0.237659 0.384463 0.177531 0.260438 0.378762 0.395277 0.153330 0.544333 0.314256 0.312147 0.321444 0.307214 0.371082 0.354566 0.133714
-0.057702 1.068817 0.000034 0.000000 0.000000 0.000000 0.064836 0.009886 0.055139 0.202335 -0.427128 -0.169515 0.189410 -0.892879 -0.329472 -0.064841 -0.009853 -0.055189 0.084033 -0.414433 -0.175016 0.111051 -0.915853 -0.312617 0.041526 0.252952 0.160870 0.099479 0.561599 0.281908 0.180667 0.641574 0.266421 0.136092 0.756462 0.325170 0.049745 0.521310 0.193790 0.259247 0.399606 0.182589 0.271580 0.399810 0.409293 0.160096 0.538604 0.328545 0.331062 0.322386 0.310240 0.392419 0.370580 0.110971
-0.053556 1.064553 0.000036 0.000000 0.000000 0.000000 0.068112 0.010508 0.056768 0.205207 -0.429462 -0.181490 0.189167 -0.888716 -0.345595 -0.068117 -0.010477 -0.056821 0.083380 -0.413899 -0.184500 0.115584 -0.920934 -0.325163 0.041923 0.252169 0.161221 0.101174 0.560356 0.282251 0.183307 0.640732 0.267636 0.139028 0.756161 0.328050 0.048546 0.524252 0.191764 0.271629 0.413835 0.176922 0.279055 0.418911 0.407597 0.164995 0.535997 0.329843 0.343497 0.320581 0.304173 0.402247 0.386098 0.085519
-0.046951 1.058995 0.000037 0.000000 0.000000 0.000000 0.073717 0.010810 0.056763 0.205026 -0.437626 -0.190055 0.184789 -0.894156 -0.350900 -0.073722 -0.010779 -0.056818 0.077847 -0.421292 -0.195134 0.119117 -0.935973 -0.336493 0.039817 0.254464 0.156771 0.097747 0.564911 0.273636 0.178279 0.647244 0.256544 0.133225 0.763438 0.320369 0.038749 0.531834 0.183007 0.268775 0.423374 0.155340 0.281648 0.427327 0.389420 0.167686 0.535978 0.320278 0.341775 0.310312 0.289349 0.395417 0.390600 0.064989
-0.039886 1.052573 0.000037 0.000000 0.000000 0.000000 0.080040 0.010414 0.054165 0.201030 -0.445290 -0.200413 0.175583 -0.899561 -0.355880 -0.080045 -0.010383 -0.054219 0.068455 -0.430743 -0.207228 0.119799 -0.947406 -0.353743 0.036714 0.257308 0.152121 0.091735 0.569408 0.266161 0.169269 0.653330 0.244306 0.123602 0.769604 0.314442 0.024637 0.539518 0.176203 0.258878 0.429634 0.128475 0.283148 0.427010 0.368867 0.169815 0.535211 0.309509 0.330967 0.292704 0.274319 0.382917 0.386025 0.054036
-0.033133 1.046358 0.000036 0.000000 0.000000 0.000000 0.085385 0.009401 0.050555 0.194574 -0.450967 -0.209767 0.162923 -0.902066 -0.360621 -0.085390 -0.009370 -0.050608 0.060253 -0.438294 -0.218120 0.121078 -0.953735 -0.371556 0.034575 0.259328 0.148950 0.087514 0.572097 0.263240 0.162384 0.655901 0.236838 0.116569 0.772033 0.314560 0.013275 0.546299 0.173386 0.249937 0.434573 0.109550 0.287772 0.422824 0.356936 0.172649 0.533194 0.302675 0.317807 0.272081 0.264552 0.371603 0.375906 0.054718
-0.028323 1.041096 0.000033 0.000000 0.000000 0.000000 0.089063 0.007850 0.048464 0.186651 -0.453689 -0.220276 0.146010 -0.898986 -0.366834 -0.089069 -0.007817 -0.048512 0.058098 -0.439350 -0.227266 0.127332 -0.951296 -0.380982 0.035634 0.258477 0.150910 0.090119 0.570238 0.274629 0.165277 0.650000 0.246795 0.119379 0.765555 0.335299 0.011601 0.550512 0.180470 0.250224 0.437819 0.106221 0.299340 0.419401 0.364617 0.178546 0.529373 0.310630 0.308874 0.251080 0.264666 0.364633 0.358831 0.067757
-0.026893 1.037289 0.000029 0.000000 0.000000 0.000000 0.090003 0.005910 0.049163 0.178351 -0.456485 -0.226923 0.126128 -0.894309 -0.372428 -0.090009 -0.005874 -0.049205 0.062075 -0.436896 -0.232560 0.137305 -0.944590 -0.379690 0.039707 0.255788 0.157794 0.099399 0.565476 0.299488 0.178337 0.638901 0.273734 0.132602 0.753367 0.374495 0.019552 0.552721 0.196368 0.260373 0.439872 0.114288 0.317007 0.417540 0.388386 0.186907 0.524832 0.333669 0.305376 0.232688 0.275028 0.363254 0.337680 0.089364
-0.027182 1.035274 0.000027 0.000000 0.000000 0.000000 0.089221 0.003850 0.050391 0.171417 -0.462092 -0.222746 0.109637 -0.894969 -0.371278 -0.089228 -0.003813 -0.050429 0.064511 -0.439376 -0.233338 0.143412 -0.944490 -0.376396 0.042452 0.255521 0.162909 0.106295 0.564350 0.318322 0.188257 0.635181 0.294014 0.143415 0.748529 0.402388 0.024793 0.556278 0.208489 0.265468 0.442922 0.118706 0.330852 0.413104 0.402222 0.192930 0.521647 0.352099 0.300644 0.219083 0.283853 0.363381 0.319225 0.106783
-0.027337 1.034530 0.000027 0.000000 0.000000 0.000000 0.089950 0.001478 0.050368 0.165408 -0.463891 -0.220526 0.095720 -0.891787 -0.368830 -0.089958 -0.001441 -0.050408 0.061862 -0.442254 -0.235772 0.144779 -0.943222 -0.375599 0.042821 0.256249 0.167303 0.108616 0.564205 0.332573 0.191083 0.635079 0.307649 0.147307 0.747148 0.422154 0.023488 0.559378 0.219428 0.262163 0.445967 0.117155 0.336907 0.405814 0.400926 0.197296 0.517357 0.364919 0.294780 0.208204 0.282693 0.361130 0.302950 0.114146
-0.027130 1.034061 0.000029 0.000000 0.000000 0.000000 0.091842 -0.000748 0.050386 0.159910 -0.460944 -0.221691 0.080469 -0.882814 -0.364922 -0.091849 0.000786 -0.050428 0.057650 -0.443294 -0.240990 0.144222 -0.938262 -0.377180 0.042911 0.256706 0.172087 0.110664 0.563086 0.346633 0.192506 0.633569 0.320851 0.149559 0.744614 0.441304 0.021409 0.560674 0.231082 0.257589 0.447561 0.114542 0.338231 0.399699 0.393479 0.202605 0.512156 0.377483 0.291827 0.200561 0.276497 0.357083 0.290682 0.113925
-0.026864 1.033451 0.000031 0.000000 0.000000 0.000000 0.094035 -0.001773 0.050680 0.155070 -0.458011 -0.217879 0.065018 -0.876482 -0.351135 -0.094043 0.001810 -0.050727 0.053514 -0.445773 -0.246813 0.142352 -0.937580 -0.383200 0.043048 0.258937 0.172863 0.111930 0.564977 0.351122 0.192427 0.634339 0.324112 0.150420 0.745245 0.447139 0.017794 0.563319 0.235876 0.245933 0.449236 0.111375 0.331979 0.396465 0.378110 0.208040 0.510101 0.380879 0.292239 0.197710 0.264989 0.348503 0.285520 0.105128
-0.026772 1.032694 0.000034 0.000000 0.000000 0.000000 0.097477 -0.002247 0.049741 0.150704 -0.454698 -0.215416 0.051115 -0.870599 -0.333270 -0.097485 0.002284 -0.049793 0.047005 -0.448694 -0.255622 0.138271 -0.938918 -0.393714 0.042327 0.262244 0.171401 0.110005 0.569567 0.349922 0.188756 0.637474 0.320056 0.148238 0.748019 0.445028 0.009524 0.567727 0.237680 0.222946 0.451081 0.107452 0.315057 0.394013 0.356815 0.212097 0.511060 0.376704 0.292018 0.197479 0.248327 0.334130 0.282590 0.094411
-0.026941 1.032016 0.000036 0.000000 0.000000 0.000000 0.101566 -0.002645 0.047693 0.146491 -0.450775 -0.216888 0.038414 -0.863309 -0.317556 -0.101574 0.002681 -0.047750 0.037877 -0.451194 -0.265459 0.132167 -0.939559 -0.405668 0.040855 0.265307 0.170510 0.105956 0.574720 0.349013 0.182869 0.641379 0.314893 0.144460 0.750623 0.442729 -0.001481 0.572418 0.240373 0.194278 0.452193 0.103599 0.289439 0.390799 0.333884 0.214870 0.513796 0.371049 0.289479 0.199633 0.231757 0.317774 0.280305 0.087775
-0.027447 1.031890 0.000039 0.000000 0.000000 0.000000 0.105083 -0.002816 0.045060 0.141908 -0.447522 -0.219060 0.026473 -0.856660 -0.305127 -0.105091 0.002851 -0.045122 0.028054 -0.453035 -0.271652 0.125560 -0.940224 -0.415956 0.039135 0.267835 0.170379 0.101436 0.579648 0.348307 0.176236 0.645783 0.309808 0.140450 0.752961 0.440579 -0.012542 0.576668 0.243484 0.164942 0.452019 0.103173 0.257838 0.386040 0.313292 0.216681 0.517992 0.364818 0.284887 0.205646 0.216793 0.300675 0.280319 0.082499
-0.028327 1.032382 0.000042 0.000000 0.000000 0.000000 0.108130 -0.002973 0.041726 0.136939 -0.445353 -0.221318 0.015103 -0.851803 -0.296853 -0.108138 0.003007 -0.041794 0.018691 -0.453829 -0.273262 0.119782 -0.941296 -0.422617 0.037243 0.269663 0.170919 0.096527 0.583924 0.347843 0.168830 0.650129 0.305616 0.136247 0.754879 0.439373 -0.023436 0.579860 0.247690 0.135530 0.449447 0.108503 0.221875 0.378803 0.298094 0.217356 0.522951 0.358011 0.277573 0.214828 0.200062 0.279707 0.281587 0.072673
-0.029224 1.033295 0.000045 0.000000 0.000000 0.000000 0.110894 -0.003320 0.037731 0.131894 -0.444322 -0.223354 0.004322 -0.849157 -0.292134 -0.110901 0.003352 -0.037806 0.009930 -0.454320 -0.271777 0.114902 -0.943077 -0.426201 0.035285 0.270806 0.171816 0.091054 0.587274 0.347693 0.160470 0.653683 0.302733 0.131757 0.756100 0.439304 -0.034189 0.581674 0.253378 0.105885 0.444567 0.119031 0.183862 0.368925 0.288798 0.216608 0.527717 0.350549 0.267342 0.225651 0.179364 0.253257 0.283539 0.057043
-0.029780 1.034607 0.000049 0.000000 0.000000 0.000000 0.113106 -0.003728 0.033474 0.126809 -0.444353 -0.223948 -0.005816 -0.848858 -0.289020 -0.113113 0.003758 -0.033558 0.002095 -0.455584 -0.268982 0.110695 -0.945661 -0.428040 0.033691 0.271435 0.172579 0.085855 0.589584 0.347287 0.152062 0.656181 0.300632 0.127481 0.756601 0.439291 -0.043606 0.582371 0.259916 0.076734 0.438341 0.133282 0.146370 0.356835 0.285026 0.215025 0.531394 0.342196 0.255489 0.237463 0.155419 0.223367 0.287157 0.039350
-0.030007 1.036078 0.000054 0.000000 0.000000 0.000000 0.114629 -0.004010 0.029190 0.121611 -0.445220 -0.222885 -0.016031 -0.850340 -0.286204 -0.114636 0.004038 -0.029283 -0.004222 -0.457423 -0.266031 0.107301 -0.948348 -0.428291 0.032709 0.271836 0.172889 0.081736 0.591120 0.346107 0.144757 0.657890 0.298417 0.123995 0.756690 0.438335 -0.050908 0.582250 0.266785 0.048187 0.430569 0.149542 0.110222 0.343239 0.284799 0.213634 0.533787 0.332789 0.243861 0.249964 0.128291 0.192326 0.292495 0.020302
-0.029758 1.037436 0.000058 0.000000 0.000000 0.000000 0.115504 -0.004054 0.024911 0.116184 -0.446732 -0.221162 -0.026964 -0.852598 -0.283866 -0.115511 0.004080 -0.025011 -0.009190 -0.459189 -0.262799 0.104086 -0.950564 -0.427132 0.032044 0.272233 0.172779 0.078164 0.592368 0.344180 0.138612 0.659457 0.295749 0.121252 0.756921 0.436531 -0.056737 0.581593 0.273604 0.021040 0.421665 0.166932 0.076539 0.330363 0.286630 0.212313 0.535645 0.322561 0.232297 0.262703 0.097891 0.161017 0.298941 -0.001399
-0.028692 1.038556 0.000060 0.000000 0.000000 0.000000 0.115988 -0.003786 0.020867 0.110610 -0.448467 -0.219631 -0.037967 -0.854635 -0.282375 -0.115995 0.003812 -0.020972 -0.013321 -0.460565 -0.258496 0.100682 -0.952173 -0.425104 0.031157 0.272604 0.172438 0.074237 0.593876 0.341830 0.132976 0.661668 0.292742 0.118740 0.757826 0.434782 -0.062266 0.580913 0.279527 -0.003836 0.412614 0.183777 0.046689 0.320497 0.289026 0.210355 0.538143 0.312419 0.219063 0.275449 0.066333 0.129355 0.306835 -0.022559
-0.026597 1.039349 0.000062 0.000000 0.000000 0.000000 0.116342 -0.003213 0.017350 0.105069 -0.450032 -0.218335 -0.048285 -0.856034 -0.281086 -0.116348 0.003237 -0.017457 -0.016871 -0.461387 -0.253041 0.097526 -0.953014 -0.422618 0.029813 0.272920 0.171887 0.069844 0.595982 0.339342 0.127632 0.664867 0.289445 0.116322 0.759594 0.433583 -0.068186 0.580413 0.283944 -0.027205 0.403177 0.197442 0.018896 0.314000 0.288697 0.207755 0.541984 0.303049 0.203542 0.288361 0.035068 0.096618 0.316757 -0.040235
